# xmcd
#
# Track frame offsets:
# 150
# 42567
# 61880
# 84158
# 103010
# 136670
# 153666
# 180935
# 195251
# 216939
# 243613
#
# Disc length: 4657 seconds
#
# Revision: 1
# Processed by: cddbd v1.5.2PL0 Copyright (c) Steve Scherf et al.
# Submitted via: CedeCatalogueitor 2.6.0.6 http://personales.ya.com/cdcatalogueitor
#
DISCID=8c122f0b
DTITLE=Destroyer - Destroyer's Rubies
DYEAR=1900
DGENRE=
TTITLE0=Rubies
TTITLE1=Your Blood
TTITLE2=European Oils
TTITLE3=Painter In Your Pocket
TTITLE4=Looter's Follies
TTITLE5=3000 Flowers
TTITLE6=A Dangerous Woman Up To A Point
TTITLE7=Priest's Knees
TTITLE8=Watercolours Into The Ocean
TTITLE9=Sick Priest Learns To Last Forever
TTITLE10=Loscil's Rubies (bonues Track)
EXTD=
EXTT0=
EXTT1=
EXTT2=
EXTT3=
EXTT4=
EXTT5=
EXTT6=
EXTT7=
EXTT8=
EXTT9=
EXTT10=
PLAYORDER=
